<?xml version="1.0" encoding="utf-8"?>
<!-- Generator: Adobe Illustrator 19.2.1, SVG Export Plug-In . SVG Version: 6.00 Build 0)  -->
<svg version="1.1" id="layer" xmlns="http://www.w3.org/2000/svg" xmlns:xlink="http://www.w3.org/1999/xlink" x="0px" y="0px"
	 viewBox="0 0 652 652" style="enable-background:new 0 0 652 652;" xml:space="preserve">
<style type="text/css">
	.st0{fill:#788B95;}
</style>
<path class="st0" d="M218.6,368.4c-1.4,0-2.5-0.5-3.4-1.4c-0.9-0.9-1.4-2.1-1.4-3.4v-69.4c0-1.4,0.5-2.5,1.4-3.4
	c0.9-1,2.1-1.5,3.4-1.5c1.4,0,2.6,0.5,3.5,1.4c0.9,0.9,1.4,2.1,1.4,3.5v69.4c0,1.4-0.5,2.5-1.5,3.4C221.1,368,220,368.4,218.6,368.4
	z M263.7,369c-8.7,0-15.5-2.5-20.4-7.4c-4.8-5-7.3-12-7.3-20.9c0-5.1,0.9-9.7,2.8-14c1.9-4.3,4.7-7.7,8.5-10.4c3.8-2.6,8.6-4,14.2-4
	c5.3,0,9.8,1.2,13.7,3.7c3.8,2.4,6.8,5.7,8.8,9.8c2,4.1,3,8.5,3,13.4c0,1.4-0.5,2.5-1.4,3.4c-0.9,0.9-2,1.4-3.5,1.4h-36.2
	c0.6,5,2.4,8.9,5.6,11.6c3.1,2.8,7.5,4.2,13.1,4.2c3,0,5.6-0.3,7.8-0.9c2.3-0.6,4.5-1.4,6.6-2.5c0.6-0.3,1.2-0.4,1.9-0.4
	c1.1,0,2.1,0.4,3,1.2c0.9,0.8,1.3,1.8,1.3,3c0,1.6-0.9,2.9-2.8,4c-2.8,1.6-5.5,2.7-8.2,3.5C271.5,368.6,268,369,263.7,369z
	 M277.4,336.2c-0.2-3.5-1.1-6.4-2.8-8.8c-1.6-2.4-3.5-4.1-5.9-5.1c-2.4-1.1-4.7-1.7-7.2-1.7c-2.4,0-4.8,0.6-7.2,1.7
	c-2.4,1.1-4.3,2.8-5.9,5.1c-1.6,2.4-2.5,5.3-2.7,8.8H277.4z M317.6,368.4c-1.3,0-2.5-0.4-3.5-1.1c-1.1-0.8-1.9-1.7-2.4-2.9
	L293.1,320c-0.4-0.9-0.5-1.6-0.5-2.2c0-1.4,0.5-2.5,1.4-3.4c0.9-1,2.1-1.5,3.4-1.5c0.9,0,1.8,0.3,2.6,0.9c0.9,0.5,1.5,1.1,1.8,1.9
	l16.4,41.5l16.4-41.5c0.4-0.8,0.9-1.4,1.7-1.9c0.9-0.6,1.7-0.9,2.7-0.9c1.4,0,2.5,0.5,3.4,1.5c0.9,0.9,1.4,2.1,1.4,3.4
	c0,0.6-0.2,1.4-0.5,2.2l-18.6,44.5c-0.5,1.1-1.3,2.1-2.4,2.9c-1.1,0.7-2.2,1.1-3.5,1.1H317.6z M377.5,369c-8.7,0-15.5-2.5-20.4-7.4
	c-4.8-5-7.3-12-7.3-20.9c0-5.1,0.9-9.7,2.8-14c1.9-4.3,4.7-7.7,8.5-10.4s8.6-4,14.2-4c5.3,0,9.8,1.2,13.7,3.7
	c3.8,2.4,6.8,5.7,8.8,9.8c2,4.1,3,8.5,3,13.4c0,1.4-0.5,2.5-1.4,3.4c-0.9,0.9-2,1.4-3.5,1.4h-36.2c0.6,5,2.4,8.9,5.6,11.6
	c3.1,2.8,7.5,4.2,13.1,4.2c3,0,5.6-0.3,7.8-0.9c2.3-0.6,4.5-1.4,6.6-2.5c0.6-0.3,1.2-0.4,1.9-0.4c1.1,0,2.1,0.4,3,1.2
	c0.9,0.8,1.3,1.8,1.3,3c0,1.6-0.9,2.9-2.8,4c-2.8,1.6-5.5,2.7-8.2,3.5C385.3,368.6,381.8,369,377.5,369z M391.2,336.2
	c-0.2-3.5-1.1-6.4-2.8-8.8c-1.6-2.4-3.5-4.1-5.9-5.1c-2.4-1.1-4.7-1.7-7.2-1.7c-2.4,0-4.8,0.6-7.2,1.7c-2.4,1.1-4.3,2.8-5.9,5.1
	c-1.6,2.4-2.5,5.3-2.7,8.8H391.2z M417.4,368.4c-1.4,0-2.5-0.5-3.4-1.4c-0.9-0.9-1.4-2.1-1.4-3.4v-69.4c0-1.4,0.5-2.5,1.4-3.4
	c0.9-1,2.1-1.5,3.4-1.5c1.4,0,2.6,0.5,3.5,1.4c0.9,0.9,1.4,2.1,1.4,3.5v69.4c0,1.4-0.5,2.5-1.5,3.4
	C419.9,368,418.8,368.4,417.4,368.4z M457.7,369.3c-7.1,0-13.6-1.6-19.4-4.8c-1.2-0.9-1.8-2-1.8-3.5c0-1.1,0.4-2.1,1.2-3
	c0.8-0.9,1.8-1.3,3-1.3c0.6,0,1.3,0.1,1.9,0.4c2.3,1,4.6,1.8,6.8,2.4s4.8,0.9,7.7,0.9c7.9,0,11.9-2.5,11.9-7.6
	c0-1.6-0.9-2.9-2.8-3.7c-1.8-0.9-4.7-1.8-8.9-2.9c-4.2-1-7.7-2-10.5-3.1c-2.7-1.1-5.1-2.7-7.1-4.8c-1.9-2.2-2.9-5.1-2.9-8.7
	c0-5,1.8-9,5.3-12.2c3.6-3.1,8.8-4.7,15.5-4.7c5.5,0,10.7,0.9,15.5,2.7c1,0.3,1.7,0.8,2.2,1.6c0.6,0.8,0.9,1.6,0.9,2.5
	c0,1.1-0.4,2.1-1.3,3c-0.8,0.9-1.8,1.3-3,1.3c-0.4,0-0.8-0.1-1.4-0.2c-4.1-1.3-8.2-1.9-12.2-1.9c-3.8,0-6.9,0.7-9.1,2.1
	c-2.1,1.4-3.2,3.1-3.2,5.3c0,2.1,1,3.7,3,4.7c2,1,5.1,2,9.3,2.9c4.2,1.1,7.6,2.1,10.3,3.2c2.6,1,4.9,2.6,6.7,4.8
	c1.9,2.2,2.9,5.2,2.9,8.9c0,4.6-1.8,8.3-5.5,11.3C469.4,367.8,464.3,369.3,457.7,369.3z M495.1,368.6c-1.6,0-3.1-0.6-4.3-1.7
	c-1.1-1.2-1.7-2.6-1.7-4.3V362c0-1.6,0.6-3,1.7-4.2c1.2-1.2,2.6-1.8,4.3-1.8h1.1c1.6,0,3,0.6,4.2,1.8c1.2,1.1,1.8,2.5,1.8,4.2v0.6
	c0,1.6-0.6,3.1-1.8,4.3c-1.1,1.1-2.5,1.7-4.2,1.7H495.1z M521.3,368.8c-1.4,0-2.5-0.5-3.4-1.4c-0.9-0.9-1.4-2.1-1.4-3.4v-41.9h-6.3
	c-1.1,0-2.1-0.4-3-1.2c-0.8-0.9-1.2-1.9-1.2-3c0-1.2,0.4-2.2,1.2-3c0.9-0.8,1.9-1.2,3-1.2h6.3v-6.2c0-4.3,0.7-7.8,2.2-10.5
	c1.6-2.8,3.6-4.8,6-6c2.5-1.3,5.1-1.9,7.8-1.9c3.3,0,6.4,0.7,9.3,2.1c0.7,0.4,1.3,0.9,1.7,1.6c0.5,0.6,0.7,1.4,0.7,2.1
	c0,1.1-0.4,2-1.2,2.9c-0.8,0.8-1.7,1.2-2.8,1.2c-0.8,0-1.6-0.1-2.5-0.3c-1.7-0.2-2.7-0.3-2.9-0.3c-2.9,0-5.1,0.7-6.6,2
	c-1.4,1.4-2.1,3.8-2.1,7.4v5.9h13.4c1.2,0,2.2,0.4,3,1.2c0.8,0.8,1.2,1.8,1.2,3c0,1.1-0.4,2.1-1.2,3c-0.8,0.8-1.8,1.2-3,1.2h-13.4
	V364c0,1.4-0.5,2.5-1.5,3.4C523.8,368.3,522.7,368.8,521.3,368.8z M570.3,393.4c-1.3,0-2.4-0.5-3.3-1.4c-0.9-0.9-1.3-2-1.3-3.3
	c0-0.6,0.1-1.1,0.3-1.7l6.9-17.8l-20.1-48.9c-0.3-0.7-0.4-1.4-0.4-2c0-1.4,0.5-2.5,1.4-3.4c0.9-1,2.1-1.5,3.4-1.5
	c1,0,1.9,0.3,2.7,0.9c0.9,0.6,1.5,1.3,1.8,2.1l16.5,40.8l16.8-40.6c0.9-2.1,2.4-3.2,4.5-3.2c1.4,0,2.5,0.5,3.4,1.5
	c0.9,0.9,1.4,2.1,1.4,3.4c0,0.6-0.1,1.2-0.3,1.8l-29.2,70.1C573.8,392.3,572.3,393.4,570.3,393.4z M619.5,302.6
	c-1.5,0-2.8-0.5-3.8-1.6c-1.1-1.1-1.6-2.4-1.6-3.8v-0.4c0-1.5,0.5-2.8,1.6-3.8c1.1-1.1,2.4-1.6,3.8-1.6h0.6c1.5,0,2.8,0.5,3.8,1.6
	c1.1,1.1,1.6,2.4,1.6,3.8v0.4c0,1.5-0.5,2.8-1.6,3.8c-1.1,1.1-2.4,1.6-3.8,1.6H619.5z M619.7,368.8c-1.4,0-2.5-0.5-3.4-1.4
	c-0.9-0.9-1.4-2.1-1.4-3.4v-45.8c0-1.4,0.5-2.5,1.4-3.4c0.9-1,2.1-1.5,3.4-1.5c1.4,0,2.6,0.5,3.5,1.4c0.9,0.9,1.4,2.1,1.4,3.5V364
	c0,1.4-0.5,2.5-1.5,3.4C622.2,368.3,621,368.8,619.7,368.8z"/>
<path class="st0" d="M215.2,367l0.8-0.8l0,0L215.2,367z M215.2,290.8l0.8,0.8l0,0l0,0L215.2,290.8z M222.1,290.7l0.8-0.8l0,0
	L222.1,290.7z M222,367l-0.8-0.8l0,0l0,0L222,367z M218.6,367.3c-1.1,0-1.9-0.4-2.6-1.1l-1.6,1.6c1.1,1.1,2.6,1.7,4.2,1.7V367.3z
	 M216,366.3c-0.7-0.7-1.1-1.6-1.1-2.6h-2.2c0,1.6,0.6,3.1,1.7,4.2L216,366.3z M214.9,363.6v-69.4h-2.2v69.4H214.9z M214.9,294.3
	c0-1.1,0.4-1.9,1.1-2.6l-1.6-1.6c-1.1,1.1-1.7,2.6-1.7,4.2H214.9z M216,291.6c0.7-0.8,1.6-1.1,2.6-1.1v-2.2c-1.7,0-3.1,0.6-4.2,1.9
	L216,291.6z M218.6,290.5c1.2,0,2,0.4,2.7,1.1l1.6-1.6c-1.2-1.2-2.6-1.7-4.3-1.7V290.5z M221.3,291.5c0.7,0.7,1.1,1.6,1.1,2.7h2.2
	c0-1.7-0.6-3.2-1.7-4.3L221.3,291.5z M222.4,294.3v69.4h2.2v-69.4H222.4z M222.4,363.6c0,1-0.4,1.9-1.1,2.6l1.5,1.6
	c1.2-1.1,1.9-2.6,1.9-4.2H222.4z M221.2,366.3c-0.7,0.7-1.6,1.1-2.6,1.1v2.2c1.6,0,3.1-0.6,4.2-1.7L221.2,366.3z M243.3,361.6
	l-0.8,0.8l0,0l0,0L243.3,361.6z M247.3,316.3l0.6,0.9l0,0L247.3,316.3z M275.2,316.1l-0.6,0.9l0,0L275.2,316.1z M284,325.9l-1,0.5
	l0,0L284,325.9z M285.6,342.7l-0.8-0.8l0,0l0,0L285.6,342.7z M245.9,344.1V343h-1.2l0.1,1.2L245.9,344.1z M251.4,355.7l-0.7,0.8l0,0
	L251.4,355.7z M272.4,359l-0.3-1.1l0,0L272.4,359z M279,356.6l-0.5-1l0,0L279,356.6z M282.4,364.3l0.5,1l0,0L282.4,364.3z
	 M274.2,367.8l0.3,1.1l0,0L274.2,367.8z M277.4,336.2v1.1h1.2l-0.1-1.2L277.4,336.2z M274.6,327.4l-0.9,0.6l0,0l0,0L274.6,327.4z
	 M268.7,322.3l-0.5,1l0,0l0,0L268.7,322.3z M254.4,322.3l0.5,1l0,0l0,0L254.4,322.3z M248.5,327.4l0.9,0.6l0,0L248.5,327.4z
	 M245.9,336.2l-1.1-0.1l-0.1,1.2h1.2V336.2z M263.7,367.9c-8.5,0-15-2.4-19.6-7l-1.6,1.6c5.2,5.2,12.3,7.7,21.2,7.7V367.9z
	 M244.1,360.8c-4.6-4.7-7-11.4-7-20.2h-2.2c0,9.2,2.5,16.5,7.6,21.7L244.1,360.8z M237.1,340.6c0-4.9,0.9-9.4,2.7-13.6l-2-0.9
	c-1.9,4.4-2.9,9.2-2.9,14.4H237.1z M239.8,327.1c1.8-4.1,4.5-7.4,8.2-9.9l-1.3-1.8c-4,2.8-7,6.4-8.9,10.8L239.8,327.1z M248,317.2
	c3.6-2.5,8.1-3.8,13.6-3.8v-2.2c-5.8,0-10.8,1.4-14.8,4.1L248,317.2z M261.6,313.4c5.1,0,9.4,1.2,13.1,3.6l1.2-1.9
	c-4.1-2.6-8.8-3.9-14.3-3.9V313.4z M274.6,317c3.7,2.3,6.4,5.4,8.4,9.4l2-1c-2.1-4.3-5.1-7.8-9.2-10.3L274.6,317z M283,326.4
	c1.9,3.9,2.9,8.2,2.9,12.9h2.2c0-5-1-9.6-3.1-13.8L283,326.4z M285.9,339.3c0,1.1-0.4,1.9-1.1,2.6l1.6,1.6c1.1-1.1,1.7-2.6,1.7-4.2
	H285.9z M284.8,341.9c-0.6,0.7-1.5,1-2.7,1v2.2c1.7,0,3.2-0.6,4.3-1.7L284.8,341.9z M282.1,343h-36.2v2.2h36.2V343z M244.7,344.2
	c0.6,5.2,2.5,9.4,5.9,12.4l1.5-1.7c-2.9-2.6-4.6-6.2-5.2-10.9L244.7,344.2z M250.7,356.5c3.4,3,8.1,4.4,13.9,4.4v-2.2
	c-5.5,0-9.5-1.3-12.4-3.9L250.7,356.5z M264.6,361c3.1,0,5.8-0.3,8.1-0.9l-0.6-2.2c-2.1,0.5-4.6,0.8-7.5,0.8V361z M272.6,360.1
	c2.4-0.6,4.6-1.4,6.9-2.5l-1-2c-2.1,1-4.2,1.8-6.4,2.4L272.6,360.1z M279.5,357.6c0.4-0.2,0.9-0.3,1.4-0.3V355
	c-0.9,0-1.7,0.2-2.4,0.5L279.5,357.6z M280.9,357.3c0.9,0,1.6,0.3,2.2,0.9l1.5-1.6c-1.1-1-2.3-1.5-3.7-1.5V357.3z M283.1,358.1
	c0.6,0.6,0.9,1.3,0.9,2.2h2.2c0-1.5-0.5-2.8-1.6-3.8L283.1,358.1z M284.1,360.3c0,1-0.6,2-2.2,3l1.1,1.9c2.1-1.2,3.3-2.8,3.3-4.9
	H284.1z M281.9,363.3c-2.7,1.5-5.4,2.7-8,3.4l0.6,2.1c2.8-0.8,5.6-2,8.5-3.6L281.9,363.3z M273.9,366.7c-2.6,0.7-5.9,1.1-10.2,1.1
	v2.2c4.3,0,7.9-0.4,10.8-1.2L273.9,366.7z M278.5,336.1c-0.2-3.6-1.2-6.8-3-9.3l-1.8,1.3c1.5,2.1,2.4,4.9,2.6,8.2L278.5,336.1z
	 M275.5,326.8c-1.7-2.5-3.8-4.4-6.3-5.5l-0.9,2c2.1,1,3.9,2.5,5.4,4.7L275.5,326.8z M269.2,321.3c-2.5-1.2-5-1.8-7.6-1.8v2.2
	c2.2,0,4.5,0.5,6.7,1.6L269.2,321.3z M261.6,319.4c-2.6,0-5.2,0.6-7.6,1.8l1,2c2.2-1.1,4.4-1.6,6.7-1.6V319.4z M253.9,321.3
	c-2.6,1.2-4.7,3-6.3,5.5l1.9,1.2c1.5-2.2,3.3-3.8,5.4-4.7L253.9,321.3z M247.6,326.8c-1.7,2.5-2.6,5.7-2.9,9.3l2.2,0.1
	c0.2-3.3,1.1-6.1,2.5-8.2L247.6,326.8z M245.9,337.3h31.5V335h-31.5V337.3z M314.1,367.4l-0.7,0.9l0,0l0,0L314.1,367.4z
	 M311.7,364.5l-1,0.4l0,0l0,0L311.7,364.5z M293.1,320l-1,0.4l0,0L293.1,320z M294,314.4l0.8,0.8l0,0l0,0L294,314.4z M300,313.7
	l-0.7,0.9l0,0l0,0L300,313.7z M301.8,315.6l1-0.4l0,0l0,0L301.8,315.6z M318.1,357.1l-1,0.4l1,2.6l1-2.6L318.1,357.1z M334.5,315.6
	l-1-0.5l0,0l0,0L334.5,315.6z M336.2,313.7l0.6,0.9l0,0l0,0L336.2,313.7z M342.3,314.4l-0.8,0.8l0,0l0,0L342.3,314.4z M343.2,320
	l1,0.4l0,0L343.2,320z M324.6,364.5l1,0.4l0,0l0,0L324.6,364.5z M322.2,367.4l0.6,0.9l0,0l0,0L322.2,367.4z M317.6,367.3
	c-1.1,0-2-0.3-2.9-0.9l-1.2,1.9c1.3,0.8,2.6,1.3,4.1,1.3V367.3z M314.7,366.5c-0.9-0.7-1.6-1.5-2-2.4l-2,0.9
	c0.6,1.3,1.5,2.4,2.7,3.3L314.7,366.5z M312.8,364l-18.6-44.5l-2.1,0.9l18.6,44.5L312.8,364z M294.2,319.6c-0.3-0.8-0.4-1.4-0.4-1.8
	h-2.2c0,0.8,0.2,1.7,0.6,2.7L294.2,319.6z M293.7,317.8c0-1.1,0.4-1.9,1.1-2.6l-1.6-1.6c-1.1,1.1-1.7,2.6-1.7,4.2H293.7z
	 M294.8,315.1c0.7-0.8,1.6-1.1,2.6-1.1v-2.2c-1.7,0-3.1,0.6-4.2,1.9L294.8,315.1z M297.4,314c0.7,0,1.3,0.2,1.9,0.6l1.3-1.8
	c-1-0.7-2-1.1-3.2-1.1V314z M299.4,314.7c0.7,0.4,1.1,0.9,1.4,1.4l2-0.9c-0.5-1-1.2-1.8-2.3-2.4L299.4,314.7z M300.8,316.1
	l16.4,41.5l2.1-0.8l-16.4-41.5L300.8,316.1z M319.2,357.5l16.4-41.5l-2.1-0.8l-16.4,41.5L319.2,357.5z M335.5,316.1
	c0.3-0.6,0.7-1.1,1.3-1.4l-1.2-1.9c-1,0.6-1.7,1.4-2.1,2.4L335.5,316.1z M336.8,314.6c0.7-0.5,1.4-0.7,2.1-0.7v-2.2
	c-1.2,0-2.3,0.4-3.3,1L336.8,314.6z M338.9,314c1,0,1.9,0.4,2.6,1.1l1.6-1.5c-1.1-1.2-2.6-1.9-4.2-1.9V314z M341.5,315.1
	c0.7,0.7,1.1,1.6,1.1,2.6h2.2c0-1.6-0.6-3.1-1.7-4.2L341.5,315.1z M342.6,317.8c0,0.4-0.1,1-0.4,1.8l2.1,0.9
	c0.4-0.9,0.6-1.8,0.6-2.7H342.6z M342.1,319.6L323.5,364l2.1,0.9l18.6-44.5L342.1,319.6z M323.5,364c-0.4,0.9-1.1,1.8-2,2.4l1.3,1.8
	c1.2-0.9,2.1-2,2.7-3.3L323.5,364z M321.6,366.4c-0.9,0.6-1.8,0.9-2.9,0.9v2.2c1.5,0,2.9-0.4,4.1-1.3L321.6,366.4z M318.7,367.3
	h-1.1v2.2h1.1V367.3z M357.1,361.6l-0.8,0.8l0,0l0,0L357.1,361.6z M361.2,316.3l0.6,0.9l0,0L361.2,316.3z M389,316.1l-0.6,0.9l0,0
	L389,316.1z M397.8,325.9l-1,0.5l0,0L397.8,325.9z M399.4,342.7l-0.8-0.8l0,0l0,0L399.4,342.7z M359.7,344.1V343h-1.2l0.1,1.2
	L359.7,344.1z M365.2,355.7l-0.7,0.8l0,0L365.2,355.7z M386.2,359l-0.3-1.1l0,0L386.2,359z M392.8,356.6l-0.5-1l0,0L392.8,356.6z
	 M396.2,364.3l0.5,1l0,0L396.2,364.3z M388,367.8l0.3,1.1l0,0L388,367.8z M391.2,336.2v1.1h1.2l-0.1-1.2L391.2,336.2z M388.4,327.4
	l-0.9,0.6l0,0l0,0L388.4,327.4z M382.5,322.3l-0.5,1l0,0l0,0L382.5,322.3z M368.2,322.3l0.5,1l0,0l0,0L368.2,322.3z M362.3,327.4
	l0.9,0.6l0,0L362.3,327.4z M359.7,336.2l-1.1-0.1l-0.1,1.2h1.2V336.2z M377.5,367.9c-8.5,0-15-2.4-19.6-7l-1.6,1.6
	c5.2,5.2,12.3,7.7,21.2,7.7V367.9z M357.9,360.8c-4.6-4.7-7-11.4-7-20.2h-2.2c0,9.2,2.5,16.5,7.6,21.7L357.9,360.8z M350.9,340.6
	c0-4.9,0.9-9.4,2.7-13.6l-2-0.9c-1.9,4.4-2.9,9.2-2.9,14.4H350.9z M353.6,327.1c1.8-4.1,4.5-7.4,8.2-9.9l-1.3-1.8
	c-4,2.8-7,6.4-8.9,10.8L353.6,327.1z M361.8,317.2c3.6-2.5,8.1-3.8,13.6-3.8v-2.2c-5.8,0-10.8,1.4-14.8,4.1L361.8,317.2z
	 M375.4,313.4c5.1,0,9.4,1.2,13.1,3.6l1.2-1.9c-4.1-2.6-8.8-3.9-14.3-3.9V313.4z M388.5,317c3.7,2.3,6.4,5.4,8.4,9.4l2-1
	c-2.1-4.3-5.1-7.8-9.2-10.3L388.5,317z M396.8,326.4c1.9,3.9,2.9,8.2,2.9,12.9h2.2c0-5-1-9.6-3.1-13.8L396.8,326.4z M399.7,339.3
	c0,1.1-0.4,1.9-1.1,2.6l1.6,1.6c1.1-1.1,1.7-2.6,1.7-4.2H399.7z M398.6,341.9c-0.6,0.7-1.5,1-2.7,1v2.2c1.7,0,3.2-0.6,4.3-1.7
	L398.6,341.9z M395.9,343h-36.2v2.2h36.2V343z M358.6,344.2c0.6,5.2,2.5,9.4,5.9,12.4l1.5-1.7c-2.9-2.6-4.6-6.2-5.2-10.9
	L358.6,344.2z M364.5,356.5c3.4,3,8.1,4.4,13.9,4.4v-2.2c-5.5,0-9.5-1.3-12.4-3.9L364.5,356.5z M378.4,361c3.1,0,5.8-0.3,8.1-0.9
	l-0.6-2.2c-2.1,0.5-4.6,0.8-7.5,0.8V361z M386.4,360.1c2.4-0.6,4.6-1.4,6.9-2.5l-1-2c-2.1,1-4.2,1.8-6.4,2.4L386.4,360.1z
	 M393.3,357.6c0.4-0.2,0.9-0.3,1.4-0.3V355c-0.9,0-1.7,0.2-2.4,0.5L393.3,357.6z M394.7,357.3c0.9,0,1.6,0.3,2.2,0.9l1.5-1.6
	c-1.1-1-2.3-1.5-3.7-1.5V357.3z M397,358.1c0.6,0.6,0.9,1.3,0.9,2.2h2.2c0-1.5-0.5-2.8-1.6-3.8L397,358.1z M397.9,360.3
	c0,1-0.6,2-2.2,3l1.1,1.9c2.1-1.2,3.3-2.8,3.3-4.9H397.9z M395.7,363.3c-2.7,1.5-5.4,2.7-8,3.4l0.6,2.1c2.8-0.8,5.6-2,8.5-3.6
	L395.7,363.3z M387.7,366.7c-2.6,0.7-5.9,1.1-10.2,1.1v2.2c4.3,0,7.9-0.4,10.8-1.2L387.7,366.7z M392.3,336.1
	c-0.2-3.6-1.2-6.8-3-9.3l-1.8,1.3c1.5,2.1,2.4,4.9,2.6,8.2L392.3,336.1z M389.3,326.8c-1.7-2.5-3.8-4.4-6.3-5.5l-0.9,2
	c2.1,1,3.9,2.5,5.4,4.7L389.3,326.8z M383,321.3c-2.5-1.2-5-1.8-7.6-1.8v2.2c2.2,0,4.5,0.5,6.7,1.6L383,321.3z M375.4,319.4
	c-2.6,0-5.2,0.6-7.6,1.8l1,2c2.2-1.1,4.4-1.6,6.7-1.6V319.4z M367.7,321.3c-2.6,1.2-4.7,3-6.3,5.5l1.9,1.2c1.5-2.2,3.3-3.8,5.4-4.7
	L367.7,321.3z M361.4,326.8c-1.7,2.5-2.6,5.7-2.9,9.3l2.2,0.1c0.2-3.3,1.1-6.1,2.5-8.2L361.4,326.8z M359.7,337.3h31.5V335h-31.5
	V337.3z M414,367l0.8-0.8l0,0L414,367z M414,290.8l0.8,0.8l0,0l0,0L414,290.8z M420.9,290.7l0.8-0.8l0,0L420.9,290.7z M420.8,367
	l-0.8-0.8l0,0l0,0L420.8,367z M417.4,367.3c-1.1,0-1.9-0.4-2.6-1.1l-1.6,1.6c1.1,1.1,2.6,1.7,4.2,1.7V367.3z M414.8,366.3
	c-0.7-0.7-1.1-1.6-1.1-2.6h-2.2c0,1.6,0.6,3.1,1.7,4.2L414.8,366.3z M413.7,363.6v-69.4h-2.2v69.4H413.7z M413.7,294.3
	c0-1.1,0.4-1.9,1.1-2.6l-1.6-1.6c-1.1,1.1-1.7,2.6-1.7,4.2H413.7z M414.8,291.6c0.7-0.8,1.6-1.1,2.6-1.1v-2.2
	c-1.7,0-3.1,0.6-4.2,1.9L414.8,291.6z M417.4,290.5c1.2,0,2,0.4,2.7,1.1l1.6-1.6c-1.2-1.2-2.6-1.7-4.3-1.7V290.5z M420.1,291.5
	c0.7,0.7,1.1,1.6,1.1,2.7h2.2c0-1.7-0.6-3.2-1.7-4.3L420.1,291.5z M421.2,294.3v69.4h2.2v-69.4H421.2z M421.2,363.6
	c0,1-0.4,1.9-1.1,2.6l1.5,1.6c1.2-1.1,1.9-2.6,1.9-4.2H421.2z M420,366.3c-0.7,0.7-1.6,1.1-2.6,1.1v2.2c1.6,0,3.1-0.6,4.2-1.7
	L420,366.3z M438.3,364.5l-0.6,0.9l0.1,0l0.1,0L438.3,364.5z M437.7,358l0.8,0.8l0,0L437.7,358z M442.6,357.1l-0.5,1l0,0
	L442.6,357.1z M466.2,349l-0.5,1l0,0l0,0L466.2,349z M457.3,346.1l0.3-1.1l0,0l0,0L457.3,346.1z M446.8,343l-0.4,1l0,0L446.8,343z
	 M439.8,338.2L439,339l0,0l0,0L439.8,338.2z M442.3,317.4l-0.7-0.8l0,0L442.3,317.4z M473.2,315.4l-0.4,1l0,0l0,0L473.2,315.4z
	 M475.5,317l-0.9,0.6l0,0l0,0L475.5,317z M475.1,322.4l-0.8-0.8l0,0l0,0L475.1,322.4z M470.7,323.5l-0.3,1.1l0,0l0,0L470.7,323.5z
	 M449.4,323.7l0.6,0.9l0,0L449.4,323.7z M458.5,336.6l0.3-1.1l0,0l0,0L458.5,336.6z M468.8,339.8l-0.4,1l0,0l0,0L468.8,339.8z
	 M475.5,344.6l-0.9,0.7l0,0l0,0L475.5,344.6z M472.9,364.8l-0.7-0.9l0,0L472.9,364.8z M457.7,368.2c-7,0-13.2-1.6-18.9-4.7l-1.1,2
	c6,3.3,12.7,4.9,20,4.9V368.2z M438.9,363.6c-0.9-0.6-1.3-1.5-1.3-2.6h-2.2c0,1.9,0.8,3.4,2.3,4.4L438.9,363.6z M437.6,361
	c0-0.9,0.3-1.6,0.9-2.2l-1.6-1.5c-1,1.1-1.5,2.3-1.5,3.7H437.6z M438.5,358.8c0.6-0.6,1.3-0.9,2.2-0.9v-2.2c-1.5,0-2.8,0.5-3.8,1.6
	L438.5,358.8z M440.7,357.8c0.5,0,1,0.1,1.5,0.3l0.9-2c-0.8-0.3-1.6-0.5-2.4-0.5V357.8z M442.1,358.2c2.3,1,4.7,1.8,7,2.4l0.5-2.2
	c-2.2-0.6-4.4-1.3-6.7-2.3L442.1,358.2z M449.1,360.6c2.4,0.6,5,0.9,8,0.9v-2.2c-2.8,0-5.2-0.3-7.4-0.8L449.1,360.6z M457.1,361.5
	c4,0,7.3-0.6,9.5-2.1c2.3-1.5,3.5-3.8,3.5-6.6h-2.2c0,2.2-0.8,3.7-2.5,4.8c-1.7,1.1-4.4,1.7-8.3,1.7V361.5z M470.1,352.8
	c0-1-0.3-2-0.9-2.8c-0.6-0.8-1.5-1.4-2.5-1.9l-0.9,2c0.8,0.4,1.3,0.8,1.7,1.2c0.3,0.4,0.5,0.9,0.5,1.5H470.1z M466.7,348
	c-1.9-0.9-4.9-1.9-9.1-3l-0.6,2.2c4.1,1.1,7,2,8.7,2.8L466.7,348z M457.6,345.1c-4.2-1-7.6-2-10.3-3.1l-0.8,2.1
	c2.8,1.1,6.4,2.1,10.6,3.1L457.6,345.1z M447.3,342c-2.6-1-4.8-2.5-6.6-4.5L439,339c2.1,2.3,4.6,4,7.5,5.1L447.3,342z M440.6,337.5
	c-1.7-2-2.6-4.6-2.6-7.9h-2.2c0,3.8,1,6.9,3.2,9.4L440.6,337.5z M438,329.6c0-4.7,1.7-8.4,5-11.3l-1.5-1.7c-3.8,3.4-5.7,7.7-5.7,13
	H438z M443,318.2c3.4-2.9,8.2-4.4,14.8-4.4v-2.2c-6.9,0-12.3,1.6-16.2,5L443,318.2z M457.7,313.8c5.4,0,10.4,0.9,15.1,2.6l0.8-2.1
	c-5-1.8-10.3-2.7-15.9-2.7V313.8z M472.9,316.4c0.8,0.2,1.3,0.6,1.6,1.1l1.9-1.2c-0.7-1-1.7-1.7-2.9-2.1L472.9,316.4z M474.6,317.6
	c0.5,0.6,0.6,1.2,0.6,1.8h2.2c0-1.1-0.4-2.2-1.1-3.1L474.6,317.6z M475.2,319.4c0,0.8-0.3,1.5-1,2.2l1.6,1.6c1-1,1.6-2.3,1.6-3.8
	H475.2z M474.2,321.7c-0.6,0.6-1.3,0.9-2.2,0.9v2.2c1.5,0,2.8-0.5,3.8-1.6L474.2,321.7z M472.1,322.6c-0.2,0-0.6,0-1.1-0.2l-0.5,2.2
	c0.6,0.2,1.2,0.2,1.7,0.2V322.6z M471,322.4c-4.2-1.3-8.4-2-12.5-2v2.2c3.9,0,7.8,0.6,11.9,1.9L471,322.4z M458.5,320.4
	c-4,0-7.2,0.7-9.7,2.3l1.2,1.9c2-1.3,4.8-2,8.5-2V320.4z M448.8,322.8c-2.4,1.5-3.7,3.6-3.7,6.3h2.2c0-1.8,0.8-3.2,2.7-4.4
	L448.8,322.8z M445.1,329c0,1.2,0.3,2.4,0.9,3.4c0.6,1,1.5,1.8,2.7,2.3l1-2c-0.9-0.4-1.4-0.9-1.8-1.5c-0.4-0.6-0.6-1.3-0.6-2.2
	H445.1z M448.7,334.7c2.1,1.1,5.3,2,9.6,3l0.5-2.2c-4.2-0.9-7.2-1.9-9-2.8L448.7,334.7z M458.2,337.7c4.2,1.1,7.5,2.1,10.1,3.2
	l0.8-2.1c-2.7-1.1-6.2-2.2-10.4-3.3L458.2,337.7z M468.4,340.9c2.5,0.9,4.5,2.4,6.3,4.5l1.7-1.4c-2-2.4-4.4-4.1-7.2-5.1L468.4,340.9
	z M474.6,345.4c1.7,2,2.6,4.6,2.6,8.1h2.2c0-3.9-1-7.1-3.2-9.6L474.6,345.4z M477.3,353.5c0,4.2-1.7,7.7-5,10.5l1.4,1.7
	c3.9-3.2,5.9-7.3,5.9-12.2H477.3z M472.2,364c-3.3,2.8-8.1,4.2-14.5,4.2v2.2c6.7,0,12.1-1.5,15.9-4.7L472.2,364z M490.8,366.9
	l-0.8,0.8l0,0l0,0L490.8,366.9z M490.8,357.8l-0.8-0.8l0,0L490.8,357.8z M500.4,357.8l-0.8,0.8l0,0l0,0L500.4,357.8z M500.4,366.9
	l-0.8-0.8l0,0L500.4,366.9z M495.1,367.5c-1.4,0-2.5-0.5-3.5-1.4l-1.5,1.6c1.4,1.3,3.1,2,5,2V367.5z M491.7,366.1
	c-0.9-1-1.4-2.2-1.4-3.5H488c0,1.9,0.7,3.6,2,5L491.7,366.1z M490.3,362.6V362H488v0.6H490.3z M490.3,362c0-1.3,0.5-2.5,1.4-3.4
	l-1.6-1.6c-1.4,1.4-2,3-2,5H490.3z M491.6,358.6c1-1,2.2-1.5,3.5-1.5v-2.2c-1.9,0-3.7,0.7-5.1,2.1L491.6,358.6z M495.1,357.1h1.1
	v-2.2h-1.1V357.1z M496.2,357.1c1.3,0,2.4,0.5,3.4,1.5l1.6-1.5c-1.3-1.4-3-2.2-5-2.2V357.1z M499.6,358.6c1,0.9,1.5,2,1.5,3.4h2.2
	c0-2-0.7-3.6-2.2-5L499.6,358.6z M501.1,362v0.6h2.2V362H501.1z M501.1,362.6c0,1.3-0.5,2.5-1.5,3.5l1.6,1.6
	c1.4-1.4,2.1-3.1,2.1-5.1H501.1z M499.6,366.1c-0.9,0.9-2,1.4-3.4,1.4v2.2c1.9,0,3.6-0.7,5-2L499.6,366.1z M496.2,367.5h-1.1v2.2
	h1.1V367.5z M517.9,367.4l0.8-0.8l0,0L517.9,367.4z M516.5,322.1h1.1V321h-1.1V322.1z M507.2,320.9l-0.8,0.8l0,0l0,0L507.2,320.9z
	 M507.2,314.9l-0.8-0.8l0,0l0,0L507.2,314.9z M516.5,313.8v1.1h1.1v-1.1H516.5z M518.8,297.1l-1-0.5l0,0L518.8,297.1z M524.8,291.1
	l0.5,1l0,0L524.8,291.1z M541.9,291.3l-0.5,1l0,0L541.9,291.3z M543.6,292.9l-1,0.6l0,0.1l0,0.1L543.6,292.9z M543.1,297.9l0.8,0.8
	l0,0l0,0L543.1,297.9z M537.9,298.8l0.3-1.1l-0.1,0l-0.1,0L537.9,298.8z M528.4,300.5l-0.7-0.8l0,0l0,0L528.4,300.5z M526.3,313.8
	h-1.1v1.1h1.1V313.8z M542.6,314.9l-0.8,0.8l0,0L542.6,314.9z M542.6,320.9l0.8,0.8l0,0l0,0L542.6,320.9z M526.3,322.1V321h-1.1v1.1
	H526.3z M524.8,367.4l-0.8-0.8l0,0l0,0L524.8,367.4z M521.3,367.7c-1.1,0-1.9-0.4-2.6-1.1l-1.6,1.6c1.1,1.1,2.6,1.7,4.2,1.7V367.7z
	 M518.7,366.6c-0.7-0.7-1.1-1.6-1.1-2.6h-2.2c0,1.6,0.6,3.1,1.7,4.2L518.7,366.6z M517.6,364v-41.9h-2.2V364H517.6z M516.5,321h-6.3
	v2.2h6.3V321z M510.2,321c-0.9,0-1.6-0.3-2.2-0.9l-1.5,1.6c1.1,1,2.3,1.5,3.7,1.5V321z M508.1,320.2c-0.6-0.7-0.9-1.4-0.9-2.2h-2.2
	c0,1.4,0.5,2.7,1.5,3.7L508.1,320.2z M507.2,317.9c0-0.9,0.3-1.7,0.8-2.2l-1.6-1.6c-1,1-1.5,2.3-1.5,3.8H507.2z M508,315.8
	c0.7-0.6,1.4-0.9,2.2-0.9v-2.2c-1.4,0-2.7,0.5-3.7,1.5L508,315.8z M510.2,314.9h6.3v-2.2h-6.3V314.9z M517.6,313.8v-6.2h-2.2v6.2
	H517.6z M517.6,307.6c0-4.2,0.7-7.4,2.1-9.9l-1.9-1.1c-1.6,2.9-2.4,6.6-2.4,11H517.6z M519.7,297.6c1.5-2.6,3.3-4.4,5.5-5.5l-1-2
	c-2.7,1.3-4.8,3.5-6.5,6.4L519.7,297.6z M525.3,292.1c2.3-1.2,4.8-1.8,7.3-1.8v-2.2c-2.9,0-5.7,0.7-8.3,2L525.3,292.1z M532.6,290.3
	c3.2,0,6.1,0.7,8.8,2l1-2c-3-1.5-6.3-2.3-9.8-2.3V290.3z M541.4,292.3c0.5,0.3,0.9,0.6,1.3,1.2l1.9-1.1c-0.5-0.9-1.3-1.6-2.2-2
	L541.4,292.3z M542.7,293.6c0.4,0.5,0.5,0.9,0.5,1.5h2.2c0-1-0.3-2-1-2.8L542.7,293.6z M543.2,295.1c0,0.8-0.3,1.5-0.9,2.1l1.6,1.5
	c1-1,1.5-2.3,1.5-3.6H543.2z M542.4,297.2c-0.6,0.6-1.2,0.8-2,0.8v2.2c1.4,0,2.6-0.5,3.6-1.5L542.4,297.2z M540.4,298
	c-0.7,0-1.4-0.1-2.2-0.3l-0.5,2.2c0.9,0.2,1.8,0.4,2.7,0.4V298z M538,297.7c-0.9-0.1-1.5-0.2-2-0.2c-0.5-0.1-0.8-0.1-1-0.1v2.2
	c0,0,0,0,0.2,0c0.1,0,0.3,0,0.6,0.1c0.5,0.1,1.1,0.1,2,0.2L538,297.7z M535,297.4c-3.1,0-5.6,0.7-7.4,2.3l1.5,1.7
	c1.2-1.1,3.1-1.7,5.9-1.7V297.4z M527.6,299.7c-1.8,1.7-2.5,4.5-2.5,8.2h2.2c0-3.5,0.7-5.5,1.8-6.6L527.6,299.7z M525.1,307.9v5.9
	h2.2v-5.9H525.1z M526.3,314.9h13.4v-2.2h-13.4V314.9z M539.6,314.9c0.9,0,1.7,0.3,2.2,0.8l1.6-1.6c-1-1-2.3-1.5-3.8-1.5V314.9z
	 M541.8,315.7c0.6,0.6,0.8,1.3,0.8,2.2h2.2c0-1.5-0.5-2.8-1.5-3.8L541.8,315.7z M542.7,317.9c0,0.9-0.3,1.6-0.9,2.2l1.6,1.5
	c1-1.1,1.5-2.3,1.5-3.7H542.7z M541.8,320.1c-0.6,0.6-1.3,0.8-2.2,0.8v2.2c1.5,0,2.8-0.5,3.8-1.5L541.8,320.1z M539.6,321h-13.4v2.2
	h13.4V321z M525.1,322.1V364h2.2v-41.9H525.1z M525.1,364c0,1-0.4,1.9-1.1,2.6l1.5,1.6c1.2-1.1,1.9-2.6,1.9-4.2H525.1z M524,366.6
	c-0.7,0.7-1.6,1.1-2.6,1.1v2.2c1.6,0,3.1-0.6,4.2-1.7L524,366.6z M567,392l-0.8,0.8l0,0l0,0L567,392z M566,387l-1-0.4l0,0L566,387z
	 M573,369.1l1,0.4l0.2-0.4l-0.2-0.4L573,369.1z M552.9,320.2l-1,0.4l0,0L552.9,320.2z M553.8,314.7l0.8,0.8l0,0l0,0L553.8,314.7z
	 M559.9,314.1l-0.7,0.9l0,0l0,0L559.9,314.1z M561.7,316.2l1-0.4l0,0L561.7,316.2z M578.2,357l-1,0.4l1,2.5l1-2.5L578.2,357z
	 M595,316.4l-1-0.4l0,0l0,0L595,316.4z M602.9,314.7l-0.8,0.8l0,0l0,0L602.9,314.7z M604,320l1,0.4l0,0l0,0L604,320z M574.8,390.1
	l1,0.5l0,0l0,0L574.8,390.1z M570.3,392.3c-1,0-1.8-0.3-2.5-1.1l-1.6,1.6c1.1,1.1,2.5,1.7,4.1,1.7V392.3z M567.8,391.2
	c-0.7-0.7-1-1.6-1-2.6h-2.2c0,1.6,0.5,2.9,1.6,4.1L567.8,391.2z M566.8,388.7c0-0.4,0.1-0.9,0.2-1.3l-2.1-0.8
	c-0.3,0.7-0.4,1.4-0.4,2.1H566.8z M567.1,387.4l6.9-17.8l-2.1-0.8l-6.9,17.8L567.1,387.4z M574,368.7l-20.1-48.9l-2.1,0.8l20.1,48.9
	L574,368.7z M553.9,319.8c-0.2-0.6-0.3-1.1-0.3-1.6h-2.2c0,0.8,0.2,1.6,0.5,2.4L553.9,319.8z M553.6,318.1c0-1.1,0.4-1.9,1.1-2.6
	l-1.6-1.6c-1.1,1.1-1.7,2.6-1.7,4.2H553.6z M554.7,315.5c0.7-0.8,1.6-1.1,2.6-1.1v-2.2c-1.7,0-3.1,0.6-4.2,1.9L554.7,315.5z
	 M557.3,314.3c0.8,0,1.4,0.2,2,0.6l1.3-1.8c-1-0.7-2.1-1.1-3.3-1.1V314.3z M559.3,315c0.7,0.5,1.1,1,1.4,1.6l2.1-0.9
	c-0.4-1.1-1.2-2-2.2-2.6L559.3,315z M560.7,316.6l16.5,40.8l2.1-0.8l-16.5-40.8L560.7,316.6z M579.2,357.5l16.8-40.6L594,316
	l-16.8,40.6L579.2,357.5z M596,316.9c0.4-0.9,0.9-1.6,1.4-1.9c0.5-0.4,1.2-0.6,2-0.6v-2.2c-1.2,0-2.4,0.3-3.3,1
	c-1,0.7-1.7,1.7-2.2,2.9L596,316.9z M599.5,314.3c1,0,1.9,0.4,2.6,1.1l1.6-1.5c-1.1-1.2-2.6-1.9-4.2-1.9V314.3z M602.1,315.5
	c0.7,0.7,1.1,1.6,1.1,2.6h2.2c0-1.6-0.6-3.1-1.7-4.2L602.1,315.5z M603.2,318.1c0,0.5-0.1,1-0.2,1.4l2.1,0.8
	c0.3-0.7,0.4-1.4,0.4-2.2H603.2z M602.9,319.5l-29.2,70.1l2.1,0.9l29.2-70.1L602.9,319.5z M573.8,389.6c-0.4,1-1,1.6-1.5,2
	c-0.5,0.4-1.2,0.6-2,0.6v2.2c1.2,0,2.3-0.3,3.3-1c0.9-0.7,1.7-1.7,2.2-2.9L573.8,389.6z M615.6,301l-0.8,0.8l0,0L615.6,301z
	 M624,301l0.8,0.8l0,0L624,301z M616.3,367.4l0.8-0.8l0,0L616.3,367.4z M616.3,314.7l0.8,0.8l0,0l0,0L616.3,314.7z M623.1,367.4
	l-0.8-0.8l0,0l0,0L623.1,367.4z M619.5,301.5c-1.2,0-2.2-0.4-3.1-1.3l-1.6,1.6c1.3,1.3,2.8,1.9,4.6,1.9V301.5z M616.4,300.3
	c-0.9-0.9-1.3-1.9-1.3-3.1h-2.2c0,1.8,0.7,3.4,1.9,4.6L616.4,300.3z M615.1,297.2v-0.4h-2.2v0.4H615.1z M615.1,296.8
	c0-1.2,0.4-2.2,1.3-3.1l-1.6-1.6c-1.3,1.3-1.9,2.8-1.9,4.6H615.1z M616.4,293.7c0.9-0.9,1.9-1.3,3.1-1.3v-2.2
	c-1.8,0-3.4,0.7-4.6,1.9L616.4,293.7z M619.5,292.4h0.6v-2.2h-0.6V292.4z M620.1,292.4c1.2,0,2.2,0.4,3.1,1.3l1.6-1.6
	c-1.3-1.3-2.8-1.9-4.6-1.9V292.4z M623.2,293.7c0.9,0.9,1.3,1.9,1.3,3.1h2.2c0-1.8-0.7-3.4-1.9-4.6L623.2,293.7z M624.5,296.8v0.4
	h2.2v-0.4H624.5z M624.5,297.2c0,1.2-0.4,2.2-1.3,3.1l1.6,1.6c1.3-1.3,1.9-2.8,1.9-4.6H624.5z M623.2,300.3
	c-0.9,0.9-1.9,1.3-3.1,1.3v2.2c1.8,0,3.4-0.7,4.6-1.9L623.2,300.3z M620.1,301.5h-0.6v2.2h0.6V301.5z M619.7,367.7
	c-1.1,0-1.9-0.4-2.6-1.1l-1.6,1.6c1.1,1.1,2.6,1.7,4.2,1.7V367.7z M617.1,366.6c-0.7-0.7-1.1-1.6-1.1-2.6h-2.2
	c0,1.6,0.6,3.1,1.7,4.2L617.1,366.6z M616,364v-45.8h-2.2V364H616z M616,318.1c0-1.1,0.4-1.9,1.1-2.6l-1.6-1.6
	c-1.1,1.1-1.7,2.6-1.7,4.2H616z M617.1,315.5c0.7-0.8,1.6-1.1,2.6-1.1v-2.2c-1.7,0-3.1,0.6-4.2,1.9L617.1,315.5z M619.7,314.3
	c1.2,0,2,0.4,2.7,1.1l1.6-1.6c-1.2-1.2-2.6-1.7-4.3-1.7V314.3z M622.4,315.4c0.7,0.7,1.1,1.6,1.1,2.7h2.2c0-1.7-0.6-3.2-1.7-4.3
	L622.4,315.4z M623.5,318.1V364h2.2v-45.8H623.5z M623.5,364c0,1-0.4,1.9-1.1,2.6l1.5,1.6c1.2-1.1,1.9-2.6,1.9-4.2H623.5z
	 M622.3,366.6c-0.7,0.7-1.6,1.1-2.6,1.1v2.2c1.6,0,3.1-0.6,4.2-1.7L622.3,366.6z"/>
<path class="st0" d="M36,365v19.1c0,2.3,1.9,4.2,4.2,4.2h112.3c2.3,0,4.2-1.9,4.2-4.2V271.8c0-2.3-1.9-4.2-4.2-4.2h-19.1
	c-2.3,0-4.2,1.9-4.2,4.2v19.1h-19.1c-2.3,0-4.2,1.9-4.2,4.2v19.1H86.8c-2.3,0-4.2,1.9-4.2,4.2v19.1H63.5c-2.3,0-4.2,1.9-4.2,4.2
	v19.1H40.2C37.9,360.8,36,362.7,36,365z M27.6,344.6c-1.2-1.2-1.2-3.3,0-4.5l80.9-80.9c1.2-1.2,3.3-1.2,4.5,0c1.2,1.2,1.2,3.3,0,4.5
	l-80.9,80.9C30.9,345.8,28.9,345.8,27.6,344.6z"/>
</svg>
